<svg xmlns="http://www.w3.org/2000/svg" width="32" height="32" viewBox="0 0 32 32" fill="none">
  <rect width="32" height="32" rx="8" fill="#5865F2"/>
  <path d="M22.8 10.55C21.71 10.05 20.544 9.686 19.327 9.49C19.278 9.481 19.229 9.506 19.204 9.548C19.056 9.816 18.893 10.164 18.779 10.442C17.463 10.243 16.149 10.243 14.859 10.442C14.746 10.164 14.578 9.816 14.429 9.548C14.404 9.506 14.355 9.481 14.307 9.49C13.09 9.686 11.923 10.05 10.833 10.55C10.812 10.56 10.794 10.575 10.782 10.595C8.572 13.882 7.966 17.087 8.264 20.252C8.268 20.286 8.286 20.318 8.313 20.338C9.779 21.413 11.199 22.067 12.592 22.5C12.64 22.516 12.692 22.498 12.721 22.458C13.051 22.005 13.345 21.528 13.598 21.028C13.629 20.97 13.602 20.9 13.54 20.878C13.073 20.699 12.627 20.479 12.199 20.229C12.131 20.188 12.125 20.094 12.186 20.047C12.278 19.978 12.37 19.906 12.458 19.834C12.491 19.807 12.536 19.801 12.574 19.818C15.402 21.109 18.466 21.109 21.261 19.818C21.299 19.8 21.345 19.807 21.378 19.834C21.466 19.906 21.558 19.978 21.651 20.047C21.711 20.094 21.706 20.188 21.638 20.229C21.21 20.483 20.763 20.699 20.296 20.877C20.235 20.9 20.208 20.97 20.239 21.028C20.497 21.528 20.79 22.005 21.116 22.457C21.145 22.498 21.197 22.517 21.245 22.5C22.643 22.067 24.063 21.413 25.529 20.338C25.556 20.318 25.574 20.286 25.578 20.252C25.935 16.592 24.976 13.414 22.852 10.595C22.839 10.575 22.821 10.56 22.8 10.55ZM13.918 18.326C13.052 18.326 12.34 17.546 12.34 16.585C12.34 15.624 13.036 14.844 13.918 14.844C14.809 14.844 15.513 15.632 15.497 16.585C15.497 17.546 14.801 18.326 13.918 18.326ZM19.925 18.326C19.058 18.326 18.347 17.546 18.347 16.585C18.347 15.624 19.043 14.844 19.925 14.844C20.816 14.844 21.52 15.632 21.504 16.585C21.504 17.546 20.816 18.326 19.925 18.326Z" fill="white"/>
</svg>
