<svg xmlns="http://www.w3.org/2000/svg" width="32" height="32" viewBox="0 0 32 32" fill="none">
  <rect width="32" height="32" rx="8" fill="#24292F"/>
  <path d="M16 6.5C10.753 6.5 6.5 10.805 6.5 16.114C6.5 20.361 9.222 23.964 13 25.235C13.475 25.324 13.648 25.116 13.648 24.86C13.648 24.632 13.641 24.032 13.638 23.236C10.995 23.818 10.438 21.96 10.438 21.96C10.005 20.843 9.379 20.548 9.379 20.548C8.513 19.95 9.444 19.962 9.444 19.962C10.401 20.031 10.907 20.958 10.907 20.958C11.759 22.434 13.141 22.009 13.688 21.764C13.773 21.138 14.021 20.709 14.293 20.466C12.185 20.22 9.969 19.392 9.969 15.691C9.969 14.638 10.339 13.777 10.948 13.103C10.851 12.858 10.53 11.878 11.038 10.55C11.038 10.55 11.844 10.289 13.671 11.54C14.452 11.318 15.292 11.207 16.127 11.203C16.962 11.207 17.802 11.318 18.584 11.54C20.41 10.289 21.215 10.55 21.215 10.55C21.724 11.878 21.403 12.858 21.306 13.103C21.916 13.777 22.284 14.638 22.284 15.691C22.284 19.402 20.064 20.217 17.951 20.457C18.292 20.755 18.598 21.338 18.598 22.236C18.598 23.529 18.586 24.571 18.586 24.86C18.586 25.118 18.758 25.329 19.239 25.234C23.015 23.962 25.735 20.36 25.735 16.114C25.735 10.805 21.482 6.5 16.235 6.5H16Z" fill="white"/>
</svg>
