<svg xmlns="http://www.w3.org/2000/svg" width="32" height="32" viewBox="0 0 32 32" fill="none">
  <rect width="32" height="32" rx="8" fill="#0A66C2"/>
  <path d="M11.211 13.104V24H7.589V13.104H11.211ZM11.45 9.736C11.45 10.779 10.667 11.625 9.4 11.625H9.376C8.157 11.625 7.375 10.779 7.375 9.736C7.375 8.668 8.181 7.846 9.424 7.846C10.667 7.846 11.426 8.668 11.45 9.736ZM24.625 17.753V24H21.004V18.171C21.004 16.707 20.48 15.708 19.166 15.708C18.163 15.708 17.566 16.387 17.303 17.043C17.208 17.275 17.184 17.6 17.184 17.924V24H13.562C13.562 24 13.61 14.266 13.562 13.104H17.184V14.646C17.665 13.904 18.525 12.85 20.456 12.85C22.842 12.85 24.625 14.409 24.625 17.753Z" fill="white"/>
</svg>
