<svg xmlns="http://www.w3.org/2000/svg" width="32" height="32" viewBox="0 0 32 32" fill="none">
  <rect width="32" height="32" rx="8" fill="#FF0000"/>
  <path d="M24.432 12.172C24.228 11.403 23.627 10.799 22.861 10.594C21.474 10.214 16 10.214 16 10.214C16 10.214 10.526 10.214 9.139 10.594C8.373 10.799 7.772 11.403 7.568 12.172C7.188 13.563 7.188 16.46 7.188 16.46C7.188 16.46 7.188 19.356 7.568 20.748C7.772 21.517 8.373 22.096 9.139 22.301C10.526 22.681 16 22.681 16 22.681C16 22.681 21.474 22.681 22.861 22.301C23.627 22.096 24.228 21.517 24.432 20.748C24.812 19.356 24.812 16.46 24.812 16.46C24.812 16.46 24.812 13.563 24.432 12.172ZM14.219 18.642V14.278L18.094 16.46L14.219 18.642Z" fill="white"/>
</svg>
